HIERARCHY
ROOT hip
{
  OFFSET 0.0 0.0 0.0
  CHANNELS 6 Xposition Yposition Zposition Zrotation Yrotation Xrotation
  JOINT torso
  {
    OFFSET 0.0 0.0 0.0
    CHANNELS 3 Zrotation Xrotation Yrotation
    JOINT neck
    {
      OFFSET -31.42098999999993 328.8025209999999 74.3554680000002
      CHANNELS 3 Zrotation Xrotation Yrotation
      JOINT head
      {
        OFFSET 3.3519900000001144 303.81732099999994 206.53942900000015
        CHANNELS 3 Zrotation Xrotation Yrotation
        End Site
        {
          OFFSET 0.0 0.0 0.0
        }
      }
    }
    JOINT left_collar
    {
      OFFSET -31.42098999999993 328.8025209999999 74.3554680000002
      CHANNELS 3 Zrotation Xrotation Yrotation
      JOINT left_upper_arm
      {
        OFFSET -124.490479 -8.162841999999841 8.226441000000023
        CHANNELS 3 Zrotation Xrotation Yrotation
        JOINT left_forearm
        {
          OFFSET -253.595764 -1.5758060000000569 105.0729980000001
          CHANNELS 3 Zrotation Xrotation Yrotation
          JOINT left_hand
          {
            OFFSET -269.48803699999996 0.1478270000000066 -55.346191999999974
            CHANNELS 3 Zrotation Xrotation Yrotation
            End Site
            {
              OFFSET 0.0 0.0 0.0
            }
          }
        }
      }
    }
    JOINT right_collar
    {
      OFFSET -31.42098999999993 328.8025209999999 74.3554680000002
      CHANNELS 3 Zrotation Xrotation Yrotation
      JOINT right_upper_arm
      {
        OFFSET 162.02484099999998 0.46441600000002836 2.2303470000001653
        CHANNELS 3 Zrotation Xrotation Yrotation
        JOINT right_forearm
        {
          OFFSET 240.01246700000004 -25.835875999999985 121.34179699999959
          CHANNELS 3 Zrotation Xrotation Yrotation
          JOINT right_hand
          {
            OFFSET 252.48539699999992 18.910399999999868 -67.53466800000001
            CHANNELS 3 Zrotation Xrotation Yrotation
            End Site
            {
              OFFSET 0.0 0.0 0.0
            }
          }
        }
      }
    }
  }
}
MOTION
Frames: 13
Frame Time: 0.01
-288.34973099999974 316.8770139999997 1613.3082280000003 1.3167433048320376 -1.9105497310716542 12.624604006558327 3.762768708186725 2.9032066691693066 -0.482616312632531 1.8146726071076549 4.840960211548382 -1.2460122043432316 0.0 0.0 0.0 -1.6897531301577702 -0.10710105025825319 -0.0879376826035949 -27.81061633330897 -33.08922692196027 -56.284718692891694 -13.50369881115708 2.6582472218907 -1.0321459581803554 0.0 0.0 0.0 0.02063866766994653 0.07871212762736836 -25.578028954262436 18.395515750343517 -20.455952485787158 69.9119030393467 11.211044869246308 3.3429599696803525 -1.7195148907063535 0.0 0.0 0.0
-288.2975459999997 316.8085329999997 1613.4558110000003 1.305603829476436 -1.9270979191631195 12.68282373432827 3.780415372625661 2.8869792787432265 -0.4882929848311899 1.8335365632538683 4.833106166821718 -1.2583714904615861 0.0 0.0 0.0 -1.5527204753984836 -0.09941302854567005 -0.059852370257282406 -27.479417803059672 -32.989939127870976 -56.81867826181682 -13.67047179740548 2.7098551018700836 -0.8843783011188608 0.0 0.0 0.0 -0.059690500540218676 0.061625802657791044 -25.57346855212998 18.256805985979515 -20.27518283989505 70.12142438627599 11.290254399280235 3.405360597967514 -1.933964746410455 0.0 0.0 0.0
-288.24154699999974 316.7767029999997 1613.4722900000002 1.3375249009767465 -1.6939593466400822 12.329221331985183 3.6696581109517585 2.7127411653289046 -0.4880439901385492 1.6737052013994522 4.777714315875442 -1.153288599993523 0.0 0.0 0.0 -1.378345478226584 -0.11733467334940272 0.4925888351761539 -27.976018812603417 -33.07900525153222 -55.91214999753641 -13.46802996886578 2.526242175776111 -2.0486341663159937 0.0 0.0 0.0 0.012417812579828897 0.07581729867832745 -25.208676092536074 18.106096348470995 -20.02876084684652 70.19397773373188 11.290661132855092 3.3414379972576445 -1.5851970553359092 0.0 0.0 0.0
-288.2402949999997 316.6931759999997 1613.6614990000003 1.3219520104234679 -1.700959830509514 12.353759798497768 3.676578406080224 2.6834379395442762 -0.49320704045877656 1.6658405044298006 4.782005599763007 -1.1481394819470152 0.0 0.0 0.0 -1.3324437164388718 -0.10440878428214588 0.3050277123047673 -27.457361477107803 -32.70644853862211 -56.3503401115537 -13.70852601457485 2.576779314834804 -2.008688862783593 0.0 0.0 0.0 -0.027177133186936306 0.06754496014363796 -25.212632717382938 17.967893646878654 -19.80714217316797 70.27755186146116 11.353350889659188 3.3444902171042825 -1.5032479378714887 0.0 0.0 0.0
-288.2158199999997 316.63320899999974 1613.8554690000003 1.3516201249034319 -1.750600205869543 12.377621024667063 3.654681028180182 2.687389377364243 -0.4882127463098702 1.6406998492715277 4.797525731402814 -1.1316881868528013 0.0 0.0 0.0 -1.60158707352833 -0.11824007154065427 0.2427446265513369 -27.022163030026782 -32.25063989871917 -56.46310757811087 -13.749679280137473 2.5489115175008905 -2.29361158889205 0.0 0.0 0.0 -0.060190732747211206 0.06064278563222444 -25.21483994790288 17.813598074786537 -19.554537938838873 70.35729852156015 11.40147045355126 3.3222615069861092 -1.3073896511548544 0.0 0.0 0.0
-288.1626889999997 316.56341599999973 1614.0755620000002 1.329723033253694 -1.7730849054482052 12.433056757393077 3.6897336400947327 2.664115973738608 -0.49837635565975025 1.6240728788528624 4.802562897118891 -1.1207912145976946 0.0 0.0 0.0 -1.5991505027622714 -0.12420480985463883 0.3616123289204742 -26.29538100675512 -31.888852826858358 -57.41004555765816 -14.2540009987419 2.6451018291143282 -2.2803185951156375 0.0 0.0 0.0 -0.07957324752715136 0.0565346461217384 -25.191774975562 17.687869690171052 -19.27746613159824 70.1832434668081 11.384682246336741 3.2759253921724487 -1.081750596819201 0.0 0.0 0.0
-288.1766359999997 316.4364929999997 1614.4470210000002 1.2398445803154607 -1.937631798886512 12.650630108376916 3.8145982561248655 2.7351903937387347 -0.5148358507453021 1.6766517722756813 4.843662216758395 -1.1554445081555444 0.0 0.0 0.0 -1.6153211217452499 -0.1149839931360127 0.1622636004059737 -25.990479256714572 -31.62646148371451 -57.609781124809864 -14.435509013796844 2.6587067249888885 -2.4358577486769497 0.0 0.0 0.0 -0.1938203960992176 0.03291668468997956 -25.40760401340653 17.52133249852526 -19.074188357114554 70.51187760323666 11.443311662258347 3.2944704065871133 -1.0918681539633348 0.0 0.0 0.0
-288.1633609999997 316.31256099999973 1614.6866460000003 1.2531913362931113 -2.071802417297297 12.778270103995673 3.830046496334692 2.810552558985778 -0.5082626600244338 1.696551822953429 4.855957830775814 -1.1685438309885279 0.0 0.0 0.0 -1.607096510783827 -0.10936770533356815 0.06338195940781433 -25.826978483025208 -31.350997599686213 -57.4640713084069 -14.574184092162222 2.6046447531025083 -3.038634038403605 0.0 0.0 0.0 -0.2648997186802898 0.017956665922614204 -25.473930528339828 17.37944047372049 -18.818292674611882 70.51245698343321 11.407479384481421 3.2524143364500837 -0.9187984872162154 0.0 0.0 0.0
-288.1430359999997 316.1658019999997 1614.9814450000001 1.1819994342650533 -2.022755949742906 12.796959470251103 3.895835332890296 2.7189121215280854 -0.53357588509503 1.6575333724749983 4.8708573940329085 -1.1429920745087008 0.0 0.0 0.0 -1.5625877838416422 -0.1079533838739337 0.09227473020711921 -25.65299990567572 -31.080817345083734 -57.35065745530102 -14.830938131837513 2.567318679398284 -3.66066470530686 0.0 0.0 0.0 -0.6313943909720043 -0.060705721830572074 -25.874287126216988 17.451000724252452 -19.13130483631979 71.14399612731542 11.402711101048297 3.305672327879422 -1.2154293357219055 0.0 0.0 0.0
-288.1490479999997 316.0539549999997 1615.1021730000002 1.375256804349036 -1.9209679520875704 12.495183902989968 3.647031791643481 2.6550950240486517 -0.49076413652645845 1.5408043848205335 4.825865801759113 -1.0662234111199318 0.0 0.0 0.0 -1.4824294841307706 -0.11886684476468659 0.3995487124694482 -25.29832367420614 -30.87509154718927 -57.780380169081134 -14.824680899056283 2.5687867927052803 -3.6415937236064466 0.0 0.0 0.0 -0.44568564263411525 -0.020338809443608812 -25.510057623302426 17.12715208454932 -18.544648556327356 71.1643050439587 11.409254049502362 3.253610582972507 -0.9225708543290911 0.0 0.0 0.0
-288.1453549999997 315.93865999999974 1615.3597410000002 1.290174700610216 -1.917447299539413 12.544252018275886 3.7367915692627363 2.6166331734997508 -0.5141265577969756 1.5676354231629046 4.754579049581297 -1.0835557717367699 0.0 0.0 0.0 -1.4237439226040987 -0.12077881736190835 0.504755207031549 -24.897689954603777 -30.794641807692216 -58.567238006271396 -14.777485627489764 2.6364678923778073 -3.075328308162422 0.0 0.0 0.0 -0.16254565221985057 0.039051293157829875 -25.100059552441834 16.726931920369797 -17.69679796928938 70.73525464196094 11.505175780973527 3.206979473150286 -0.5233134181301764 0.0 0.0 0.0
-288.1342769999997 315.7973019999997 1615.6345210000002 1.2619381143123896 -1.8365630587169173 12.458677532285092 3.745713747678751 2.513426320698541 -0.5292071325628052 1.5091216417997229 4.76334599689552 -1.0451668876937732 0.0 0.0 0.0 -1.4367011773972371 -0.1292193423360342 0.6492369255355203 -24.760466526382743 -30.644480784361573 -58.604151673644914 -14.73699328072247 2.592838017212327 -3.346752774865488 0.0 0.0 0.0 -0.2540872140031175 0.01988620608877925 -24.94419681947164 16.644017974979903 -17.542063804380135 70.72062916866858 11.520928882728136 3.1841098342846257 -0.37567655656770027 0.0 0.0 0.0
-288.1893009999997 315.6468199999997 1615.9519040000002 1.2792512924238155 -1.8101128984133796 12.42791755064175 3.7133746677244543 2.457075315074002 -0.5297425895280115 1.407371447507331 4.839138606934492 -0.9787082710675882 0.0 0.0 0.0 -1.3345579035664574 -0.12871387144011828 0.7543101428900044 -24.431347251676268 -30.52339426557038 -59.15699593188514 -14.813851929716513 2.6035374737949613 -3.3689180501497447 0.0 0.0 0.0 -0.45339235441345205 -0.021408647485127826 -25.015187551211625 16.627880232321044 -17.56083336347182 70.90515351544877 11.491874049584377 3.151036592689566 -0.24000017765676224 0.0 0.0 0.0
